<?xml version="1.0" encoding="UTF-8"?>
<svg xmlns="http://www.w3.org/2000/svg" xmlns:xlink="http://www.w3.org/1999/xlink" width="100px" height="100px" viewBox="0 0 100 100" version="1.1">
<g id="surface1">
<path style=" stroke:none;fill-rule:nonzero;fill:rgb(0%,0%,0%);fill-opacity:1;" d="M 79.445312 10.355469 C 77.300781 11.3125 71.066406 14.488281 28.421875 36.34375 L 24.34375 38.433594 L 13.644531 38.476562 C 5.367188 38.511719 2.84375 38.542969 2.5 38.65625 C 1.84375 38.867188 0.988281 39.554688 0.5 40.277344 L 0.0546875 40.910156 L 0.0117188 46.554688 C -0.0234375 52.722656 0 53.023438 0.589844 54.011719 C 1.066406 54.800781 1.722656 55.246094 3.300781 55.84375 C 6.734375 57.144531 8.601562 59.078125 9.398438 62.167969 C 9.679688 63.222656 9.679688 65.433594 9.410156 66.445312 C 8.867188 68.476562 7.601562 70.289062 5.921875 71.421875 C 5.054688 72.011719 4.535156 72.265625 3.300781 72.710938 C 1.523438 73.355469 1.066406 73.679688 0.398438 74.746094 L 0.109375 75.222656 L 0.109375 87.679688 L 0.554688 88.320312 C 1.035156 89.042969 1.65625 89.578125 2.289062 89.84375 C 2.957031 90.121094 5 90.210938 10.554688 90.222656 C 15.699219 90.222656 15.734375 90.222656 16.222656 89.964844 C 16.890625 89.632812 17.253906 89.078125 17.1875 88.523438 C 17.109375 87.921875 16.84375 87.589844 16.367188 87.457031 C 16.121094 87.390625 13.511719 87.3125 10 87.265625 C 6.144531 87.222656 3.921875 87.144531 3.667969 87.066406 C 2.988281 86.84375 3 86.910156 3.023438 81.320312 C 3.042969 77.289062 3.089844 76.222656 3.199219 76.078125 C 3.289062 75.976562 3.832031 75.710938 4.421875 75.488281 C 6.535156 74.679688 7.609375 74.023438 8.957031 72.753906 C 11.644531 70.199219 12.976562 66.601562 12.566406 63.035156 C 12.246094 60.179688 11 57.734375 8.832031 55.6875 C 7.621094 54.542969 6.621094 53.921875 4.832031 53.234375 C 4.035156 52.921875 3.3125 52.621094 3.222656 52.554688 C 3.078125 52.464844 3.054688 51.746094 3.054688 47.121094 C 3.054688 44.1875 3.101562 41.753906 3.144531 41.699219 C 3.320312 41.535156 16.378906 41.464844 50 41.464844 C 83.621094 41.464844 96.679688 41.535156 96.855469 41.699219 C 96.957031 41.8125 97.054688 51.621094 96.957031 52.15625 C 96.878906 52.554688 96.644531 52.699219 95.277344 53.1875 C 92.433594 54.210938 90.035156 56.277344 88.667969 58.898438 C 86.265625 63.5 87.210938 69.101562 91.023438 72.722656 C 92.265625 73.910156 93.355469 74.589844 95.234375 75.34375 C 95.988281 75.644531 96.6875 75.976562 96.777344 76.066406 C 96.921875 76.210938 96.945312 76.957031 96.945312 81.445312 C 96.945312 86.277344 96.933594 86.679688 96.746094 86.855469 C 96.589844 87.011719 96.265625 87.066406 95.132812 87.121094 C 94.355469 87.167969 77.566406 87.210938 57.8125 87.210938 L 21.910156 87.222656 L 21.554688 87.6875 C 20.964844 88.5 20.976562 88.890625 21.578125 89.644531 L 21.945312 90.101562 L 59.621094 90.101562 L 97.289062 90.109375 L 97.84375 89.765625 C 98.621094 89.277344 99.300781 88.589844 99.644531 87.945312 L 99.945312 87.390625 L 99.945312 75.609375 L 99.679688 75.023438 C 99.34375 74.289062 98.320312 73.320312 97.589844 73.054688 C 95.15625 72.167969 93.34375 71.066406 92.378906 69.910156 C 91.699219 69.089844 90.890625 67.535156 90.609375 66.5 C 90.15625 64.777344 90.3125 62.621094 91.023438 60.921875 C 92.023438 58.5 93.734375 56.964844 96.679688 55.84375 C 98.578125 55.132812 99.179688 54.644531 99.746094 53.390625 C 99.933594 52.976562 99.945312 52.5 99.945312 47.332031 C 99.945312 44.246094 99.898438 41.488281 99.855469 41.210938 C 99.679688 40.132812 98.5 38.898438 97.445312 38.679688 C 97.144531 38.609375 94.832031 38.523438 92.289062 38.488281 L 87.6875 38.410156 L 87.066406 37.679688 C 86.34375 36.820312 85.542969 35.34375 85.277344 34.390625 C 85.179688 34.023438 85.078125 33.101562 85.035156 32.332031 C 84.964844 30.632812 85.144531 29.679688 85.777344 28.355469 C 86.367188 27.121094 86.777344 26.542969 87.765625 25.542969 C 88.898438 24.410156 89.222656 23.765625 89.222656 22.644531 C 89.222656 22.101562 89.144531 21.535156 88.988281 21.042969 C 88.566406 19.6875 84.898438 12.6875 83.878906 11.289062 C 83.199219 10.378906 82.464844 9.988281 81.300781 9.921875 C 80.554688 9.878906 80.433594 9.910156 79.445312 10.355469 Z M 82.246094 14.277344 C 82.667969 15.011719 83.765625 17.121094 84.6875 18.964844 L 86.378906 22.3125 L 86.054688 22.800781 C 85.878906 23.054688 85.421875 23.644531 85.035156 24.089844 C 83.101562 26.300781 82.179688 28.542969 82.035156 31.332031 C 81.921875 33.5 82.289062 35.265625 83.277344 37.410156 C 83.488281 37.878906 83.644531 38.277344 83.621094 38.300781 C 83.5 38.421875 82.101562 38.464844 80.523438 38.390625 L 78.800781 38.3125 L 77.101562 35.011719 C 74.457031 29.867188 73.265625 27.699219 72.734375 27.121094 C 72.15625 26.476562 71 26 70.023438 26 C 68.945312 26 67.957031 26.464844 54.601562 33.3125 L 44.578125 38.445312 L 40.210938 38.433594 C 37.800781 38.421875 34.789062 38.378906 33.523438 38.34375 L 31.210938 38.277344 L 35.855469 35.898438 C 38.410156 34.589844 42.898438 32.277344 45.832031 30.777344 C 48.765625 29.265625 56.867188 25.109375 63.832031 21.554688 C 70.800781 18 77.121094 14.753906 77.890625 14.355469 C 79.765625 13.367188 80.890625 12.890625 81.210938 12.921875 C 81.433594 12.945312 81.632812 13.199219 82.246094 14.277344 Z M 70.445312 29.042969 C 70.753906 29.222656 71.632812 30.789062 73.890625 35.246094 C 74.710938 36.878906 75.34375 38.246094 75.300781 38.300781 C 75.179688 38.421875 54.445312 38.476562 52.789062 38.367188 L 51.535156 38.277344 L 53.789062 37.078125 C 56.398438 35.699219 69.957031 28.890625 70.078125 28.890625 C 70.132812 28.898438 70.289062 28.964844 70.445312 29.042969 Z M 70.445312 29.042969 "/>
<path style=" stroke:none;fill-rule:nonzero;fill:rgb(0%,0%,0%);fill-opacity:1;" d="M 22.554688 46.777344 C 19.5 46.855469 19.5 46.855469 18.898438 47.15625 C 18.132812 47.542969 17.277344 48.410156 16.976562 49.089844 C 16.789062 49.511719 16.722656 49.957031 16.65625 51.445312 C 16.542969 53.878906 16.542969 74.644531 16.65625 77.054688 C 16.765625 79.265625 16.910156 79.6875 17.832031 80.609375 C 18.542969 81.332031 19.042969 81.554688 20.222656 81.699219 C 21.542969 81.867188 78.457031 81.867188 79.777344 81.699219 C 80.957031 81.554688 81.457031 81.332031 82.167969 80.609375 C 83.121094 79.65625 83.234375 79.3125 83.355469 76.667969 C 83.511719 73.410156 83.398438 51.089844 83.234375 50 C 83.042969 48.855469 82.765625 48.320312 82.078125 47.800781 C 80.722656 46.765625 80.679688 46.765625 74.722656 46.699219 C 71.976562 46.667969 67.8125 46.679688 65.476562 46.722656 L 61.234375 46.800781 L 60.933594 47.199219 C 60.734375 47.445312 60.609375 47.765625 60.578125 48.109375 C 60.535156 48.566406 60.566406 48.679688 60.878906 49.023438 C 61.066406 49.246094 61.355469 49.457031 61.535156 49.5 C 61.699219 49.542969 65.832031 49.609375 70.722656 49.644531 C 80.289062 49.734375 79.988281 49.710938 80.253906 50.3125 C 80.355469 50.535156 80.398438 54.023438 80.421875 64.457031 L 80.457031 78.300781 L 80.144531 78.5 C 79.867188 78.6875 79.457031 78.710938 76.332031 78.789062 C 71.777344 78.898438 28.222656 78.898438 23.667969 78.789062 C 20.542969 78.710938 20.132812 78.6875 19.855469 78.5 L 19.542969 78.300781 L 19.578125 64.457031 C 19.601562 54.023438 19.644531 50.535156 19.746094 50.3125 C 20.023438 49.6875 18.988281 49.722656 38.132812 49.667969 C 55.710938 49.609375 55.878906 49.609375 56.054688 49.390625 C 56.789062 48.433594 56.8125 48 56.179688 47.265625 L 55.8125 46.832031 L 53.542969 46.765625 C 50.699219 46.667969 26.679688 46.679688 22.554688 46.777344 Z M 22.554688 46.777344 "/>
<path style=" stroke:none;fill-rule:nonzero;fill:rgb(0%,0%,0%);fill-opacity:1;" d="M 62.609375 53.523438 C 61.945312 53.765625 61.3125 54.476562 59.800781 56.699219 C 59.246094 57.523438 58.722656 58.234375 58.644531 58.300781 C 58.566406 58.355469 57.789062 58.609375 56.933594 58.867188 C 54.878906 59.464844 53.523438 59.964844 53.167969 60.246094 C 52.65625 60.644531 52.289062 61.523438 52.277344 62.332031 C 52.277344 63.234375 52.476562 63.589844 54.367188 66.101562 L 55.6875 67.832031 L 55.621094 68.667969 C 55.5 70.078125 55.535156 72.820312 55.667969 73.3125 C 55.8125 73.890625 56.3125 74.464844 56.988281 74.867188 C 57.832031 75.355469 58.433594 75.289062 61.246094 74.332031 L 63.609375 73.535156 L 65.667969 74.253906 C 68.066406 75.101562 68.910156 75.289062 69.542969 75.109375 C 70.253906 74.921875 71.023438 74.320312 71.332031 73.710938 C 71.609375 73.167969 71.609375 73.15625 71.589844 70.457031 L 71.566406 67.734375 L 72.921875 65.933594 C 74.542969 63.789062 74.910156 63.121094 74.910156 62.320312 C 74.910156 61.511719 74.433594 60.609375 73.753906 60.15625 C 73.277344 59.832031 71.933594 59.355469 69.433594 58.609375 L 68.488281 58.332031 L 67.476562 56.855469 C 65.921875 54.589844 65.277344 53.820312 64.746094 53.609375 C 64.042969 53.332031 63.253906 53.300781 62.609375 53.523438 Z M 64.800781 58.1875 C 65.421875 59.101562 66.15625 60.066406 66.421875 60.355469 C 66.964844 60.945312 67.445312 61.144531 70.011719 61.890625 C 70.890625 62.144531 71.65625 62.398438 71.699219 62.445312 C 71.746094 62.488281 71.246094 63.246094 70.578125 64.121094 C 68.5 66.878906 68.464844 66.964844 68.65625 70.089844 C 68.734375 71.222656 68.765625 72.15625 68.753906 72.167969 C 68.734375 72.179688 67.578125 71.789062 66.167969 71.300781 L 63.609375 70.410156 L 61.210938 71.222656 C 59.898438 71.667969 58.746094 72.011719 58.65625 71.976562 C 58.535156 71.933594 58.5 71.5 58.5 69.488281 L 58.5 67.054688 L 58.1875 66.433594 C 58.011719 66.101562 57.300781 65.078125 56.609375 64.167969 C 55.910156 63.246094 55.378906 62.464844 55.421875 62.433594 C 55.464844 62.390625 55.898438 62.246094 56.390625 62.109375 C 57.8125 61.722656 59.6875 61.101562 60.132812 60.878906 C 60.542969 60.667969 61.421875 59.578125 62.832031 57.523438 C 63.199219 56.988281 63.535156 56.554688 63.578125 56.554688 C 63.621094 56.554688 64.167969 57.289062 64.800781 58.1875 Z M 64.800781 58.1875 "/>
<path style=" stroke:none;fill-rule:nonzero;fill:rgb(0%,0%,0%);fill-opacity:1;" d="M 25.644531 56.535156 C 25.011719 57.199219 24.921875 57.511719 25.167969 58.035156 C 25.445312 58.632812 25.6875 58.789062 26.542969 58.898438 C 27.699219 59.066406 38.410156 58.976562 38.800781 58.8125 C 39.488281 58.5 39.667969 57.167969 39.089844 56.601562 C 38.679688 56.1875 38.042969 56.144531 31.777344 56.054688 L 26.15625 55.976562 Z M 25.644531 56.535156 "/>
<path style=" stroke:none;fill-rule:nonzero;fill:rgb(0%,0%,0%);fill-opacity:1;" d="M 26.222656 62.988281 C 25.566406 63.089844 25.457031 63.167969 25.210938 63.722656 C 24.957031 64.289062 25.042969 64.679688 25.566406 65.332031 L 25.921875 65.777344 L 36.035156 65.753906 L 46.144531 65.722656 L 46.464844 65.320312 C 46.878906 64.8125 46.976562 64.167969 46.734375 63.644531 C 46.378906 62.910156 46.910156 62.945312 36.332031 62.933594 C 31.042969 62.921875 26.5 62.945312 26.222656 62.988281 Z M 26.222656 62.988281 "/>
<path style=" stroke:none;fill-rule:nonzero;fill:rgb(0%,0%,0%);fill-opacity:1;" d="M 26.3125 69.65625 C 25.488281 69.746094 25.210938 70 25.132812 70.753906 C 25.078125 71.390625 25.289062 71.890625 25.746094 72.1875 C 26.023438 72.378906 26.6875 72.390625 35.945312 72.390625 C 45.1875 72.390625 45.855469 72.378906 46.1875 72.1875 C 46.609375 71.964844 46.890625 71.488281 46.890625 71 C 46.890625 70.589844 46.746094 70.277344 46.355469 69.855469 L 46.066406 69.554688 L 36.511719 69.566406 C 31.246094 69.578125 26.65625 69.621094 26.3125 69.65625 Z M 26.3125 69.65625 "/>
</g>
</svg>
