<?xml version="1.0" standalone="no"?>
<!DOCTYPE svg PUBLIC "-//W3C//DTD SVG 20010904//EN"
 "http://www.w3.org/TR/2001/REC-SVG-20010904/DTD/svg10.dtd">
<svg version="1.0" xmlns="http://www.w3.org/2000/svg"
 width="896.000000pt" height="275.000000pt" viewBox="0 0 896.000000 275.000000"
 preserveAspectRatio="xMidYMid meet">

<g transform="translate(0.000000,275.000000) scale(0.100000,-0.100000)"
fill="#000000" stroke="none">
<path d="M2215 2085 l-770 -395 -298 0 c-185 0 -306 -4 -318 -10 -41 -22 -49
-60 -49 -227 0 -193 6 -208 97 -241 167 -61 223 -252 112 -385 -31 -38 -94
-77 -125 -77 -9 0 -31 -15 -50 -34 l-34 -34 0 -171 0 -171 29 -32 29 -33 192
-3 c204 -3 220 0 220 44 0 13 -1 25 -2 26 -2 1 -88 4 -193 7 l-190 6 0 153 0
153 59 24 c73 30 138 91 174 165 37 76 38 181 1 260 -44 96 -77 124 -219 190
-12 6 -15 33 -15 156 l0 149 1290 0 1290 0 0 -149 c0 -123 -3 -150 -15 -156
-142 -66 -175 -94 -219 -190 -34 -74 -35 -181 -2 -256 30 -69 103 -139 177
-169 l59 -24 0 -153 0 -153 -1034 -5 c-971 -5 -1034 -6 -1045 -23 -8 -12 -8
-22 0 -35 11 -16 72 -17 1058 -17 l1048 0 29 33 29 32 0 169 c0 167 0 170 -26
200 -14 17 -42 35 -64 41 -57 15 -120 68 -149 125 -68 131 -3 284 142 337 91
33 97 48 97 241 0 167 -8 205 -49 227 -11 5 -81 10 -155 10 l-136 0 -29 41
c-61 83 -60 199 2 279 65 85 77 103 77 121 0 10 -34 86 -75 168 -78 156 -100
181 -157 181 -13 -1 -369 -178 -793 -395z m877 178 l68 -132 -42 -48 c-23 -26
-50 -68 -61 -93 -28 -63 -27 -167 1 -240 12 -30 22 -56 22 -57 0 -2 -29 -3
-64 -3 l-64 0 -82 155 c-44 85 -91 162 -103 169 -57 37 -57 37 -421 -148
l-345 -176 -182 0 c-100 0 -179 3 -175 8 15 15 1361 701 1371 699 6 -2 40 -62
77 -134z m-304 -432 c34 -66 62 -124 62 -130 0 -8 -97 -11 -327 -11 -202 0
-323 4 -317 9 19 20 498 259 508 255 6 -3 39 -58 74 -123z"/>
<path d="M4763 2261 c-17 -11 -42 -39 -56 -63 -14 -24 -100 -254 -192 -513
-120 -336 -170 -486 -173 -527 -4 -57 -3 -59 36 -98 34 -35 46 -40 84 -40 77
0 101 32 162 218 l28 82 201 0 202 0 29 -83 c62 -178 92 -217 166 -217 77 0
138 78 124 157 -9 54 -328 926 -365 1000 -40 80 -75 103 -155 103 -41 0 -69
-6 -91 -19z m217 -713 c0 -5 -56 -8 -125 -8 -89 0 -125 3 -125 12 0 9 97 316
117 368 4 12 133 -347 133 -372z"/>
<path d="M6570 2270 c-110 -28 -201 -96 -248 -185 -24 -45 -27 -61 -27 -155 0
-97 2 -109 29 -158 58 -104 143 -156 348 -213 169 -47 210 -73 229 -142 9 -33
7 -45 -13 -85 -34 -68 -89 -95 -188 -90 -104 4 -130 24 -185 143 -24 51 -54
100 -66 109 -13 9 -43 16 -67 16 -37 0 -50 -6 -78 -34 -30 -30 -34 -40 -34
-89 0 -141 104 -283 247 -337 71 -27 231 -37 317 -21 130 24 233 98 289 206
31 58 32 65 32 180 0 111 -2 124 -27 171 -53 101 -147 158 -363 219 -148 42
-201 68 -221 107 -21 40 -17 64 16 102 39 44 86 59 161 54 76 -6 103 -26 151
-114 59 -109 107 -136 177 -100 44 23 65 64 65 126 1 105 -75 208 -194 264
-60 28 -74 31 -190 33 -69 1 -141 -2 -160 -7z"/>
<path d="M7382 2264 c-12 -8 -30 -30 -40 -47 -16 -29 -17 -77 -17 -567 l0
-535 22 -36 c55 -87 179 -78 219 17 11 27 14 134 14 554 0 565 0 565 -55 608
-34 27 -109 30 -143 6z"/>
<path d="M5313 2240 c-55 -33 -66 -131 -21 -180 32 -34 61 -40 194 -40 l124 0
0 -442 c0 -414 2 -446 19 -485 45 -98 177 -98 222 0 17 39 19 71 19 485 l0
442 126 0 c145 0 183 12 208 65 20 41 20 66 2 110 -27 65 -31 65 -468 65 -372
0 -395 -1 -425 -20z"/>
<path d="M1792 1460 l-504 -5 -24 -28 -24 -28 0 -416 0 -415 34 -34 34 -34
847 0 847 0 34 34 34 34 0 417 0 417 -29 29 -29 29 -276 0 c-258 0 -276 -1
-285 -19 -7 -13 -6 -24 4 -37 12 -18 33 -19 272 -24 l258 -5 0 -395 0 -395
-830 0 -830 0 0 395 0 395 492 5 c443 4 494 7 509 22 19 19 13 43 -13 55 -10
4 -245 6 -521 3z"/>
<path d="M2439 1211 c-48 -66 -53 -70 -114 -86 -118 -32 -136 -83 -62 -176 41
-52 42 -55 47 -142 5 -84 7 -91 33 -111 l27 -20 81 26 81 27 65 -25 c82 -30
98 -30 128 1 22 22 25 32 25 105 0 79 0 81 45 141 25 34 45 71 45 84 0 41 -35
71 -105 90 -62 16 -69 22 -107 74 -52 71 -64 81 -105 81 -30 0 -39 -8 -84 -69z
m138 -81 c36 -51 44 -56 106 -74 37 -11 67 -23 67 -26 0 -4 -18 -31 -40 -60
-38 -51 -40 -57 -40 -127 0 -40 -3 -73 -7 -73 -4 0 -37 10 -74 22 l-67 21 -57
-21 c-31 -12 -61 -22 -66 -22 -5 0 -9 33 -9 73 0 70 -1 73 -45 130 l-46 57 24
9 c14 5 42 14 64 20 49 13 63 25 102 84 18 26 37 47 41 45 5 -2 26 -28 47 -58z"/>
<path d="M1488 1199 c-21 -12 -23 -40 -6 -57 8 -8 65 -12 190 -12 169 0 178 1
188 21 9 16 8 25 -6 40 -16 17 -32 19 -183 19 -94 0 -174 -5 -183 -11z"/>
<path d="M1482 1008 c-18 -18 -14 -46 7 -58 12 -6 120 -10 281 -10 161 0 269
4 281 10 21 12 25 40 7 58 -17 17 -559 17 -576 0z"/>
<path d="M6315 901 c-67 -16 -105 -65 -105 -133 0 -64 37 -99 135 -129 80 -25
105 -43 105 -75 0 -27 -44 -64 -77 -64 -27 0 -59 30 -85 78 -30 56 -96 30 -84
-32 16 -78 71 -116 169 -116 115 0 177 52 177 148 0 76 -47 117 -173 152 -78
21 -95 76 -31 100 36 14 71 -4 91 -45 15 -32 21 -36 53 -33 33 3 35 5 38 41 7
80 -101 135 -213 108z"/>
<path d="M6611 896 c-8 -9 -11 -81 -9 -237 l3 -224 40 0 40 0 6 110 c6 119 11
140 40 156 16 8 51 0 60 -14 1 -1 5 -58 8 -127 l6 -125 40 0 40 0 3 130 c2 82
-2 140 -9 158 -22 52 -103 73 -161 43 l-28 -15 0 68 c0 39 -5 72 -12 79 -16
16 -53 15 -67 -2z"/>
<path d="M4472 888 c-9 -9 -12 -73 -12 -225 0 -200 1 -213 19 -223 23 -12 280
-13 299 -1 8 5 12 21 10 37 l-3 29 -112 3 -113 3 0 64 0 64 103 3 102 3 0 30
0 30 -102 3 -103 3 0 54 0 55 96 0 c52 0 104 5 115 10 21 12 25 40 7 58 -17
17 -289 17 -306 0z"/>
<path d="M5870 871 c-5 -11 -10 -37 -10 -59 0 -31 -4 -41 -20 -45 -26 -7 -27
-47 -1 -54 17 -4 19 -17 22 -123 5 -145 14 -160 95 -160 70 0 84 7 84 40 0 26
-4 29 -37 32 l-38 3 -3 102 -3 102 28 3 c22 2 28 8 28 28 0 20 -6 26 -27 28
-25 3 -28 7 -28 43 0 56 -15 79 -50 79 -19 0 -33 -7 -40 -19z"/>
<path d="M1482 828 c-16 -16 -15 -43 2 -57 9 -8 95 -11 291 -9 252 3 279 5
289 21 8 12 8 22 0 35 -10 15 -37 17 -290 20 -209 2 -283 -1 -292 -10z"/>
<path d="M4832 768 c-19 -19 -15 -42 33 -175 60 -165 59 -163 100 -163 44 0
50 9 110 179 52 143 52 163 3 169 -33 4 -40 -7 -73 -108 -15 -47 -30 -89 -33
-94 -3 -5 -21 37 -41 95 -32 92 -39 104 -61 107 -14 2 -31 -3 -38 -10z"/>
<path d="M5220 762 c-57 -28 -80 -73 -80 -154 0 -126 48 -178 162 -178 73 0
124 24 134 65 15 60 -25 73 -79 25 -19 -16 -44 -30 -56 -30 -21 0 -61 32 -61
49 0 5 -3 16 -6 25 -5 14 7 16 95 16 115 0 128 9 116 80 -17 100 -129 151
-225 102z m114 -74 c9 -12 16 -31 16 -41 0 -16 -7 -18 -57 -15 -52 3 -58 5
-55 23 9 53 68 73 96 33z"/>
<path d="M5511 766 c-8 -9 -11 -64 -9 -172 l3 -159 40 0 40 0 5 110 c5 111 16
147 45 159 13 5 49 -6 56 -17 1 -1 5 -58 8 -127 l6 -125 40 0 40 0 3 130 c2
82 -2 140 -9 158 -22 52 -103 73 -163 42 -27 -14 -31 -14 -38 0 -11 19 -52 20
-67 1z"/>
<path d="M7024 766 c-88 -40 -120 -180 -62 -274 27 -44 66 -62 133 -62 107 0
159 55 159 169 1 73 -19 119 -66 154 -34 26 -121 33 -164 13z m107 -75 c18
-14 23 -31 27 -79 4 -58 3 -63 -27 -92 -25 -26 -34 -29 -51 -20 -38 21 -53 56
-48 117 4 43 10 61 28 75 28 23 42 23 71 -1z"/>
<path d="M7322 768 c-13 -13 -18 -421 -6 -452 7 -19 55 -21 72 -4 7 7 12 41
12 82 0 66 1 68 18 53 13 -12 36 -17 75 -17 49 0 59 4 86 30 70 71 66 228 -7
294 -29 26 -101 32 -139 12 -27 -14 -32 -14 -43 -1 -15 18 -51 20 -68 3z m191
-90 c40 -54 16 -166 -37 -176 -47 -9 -89 83 -66 143 26 69 67 82 103 33z"/>
</g>
</svg>
